<svg id="svg" version="1.1" xmlns="http://www.w3.org/2000/svg" xmlns:xlink="http://www.w3.org/1999/xlink" width="180" height="80" viewBox="0, 0, 400,120"><g id="svgg"><path id="path0" d="M67.600 5.937 C 15.655 17.873,3.513 78.522,47.820 104.735 C 67.933 116.635,96.867 116.635,116.980 104.735 C 153.101 83.365,153.101 35.035,116.980 13.665 C 103.966 5.965,82.259 2.568,67.600 5.937 M97.972 9.659 C 117.208 14.341,132.760 27.682,138.739 44.628 L 139.853 47.783 133.726 45.437 C 121.300 40.677,111.406 36.875,104.000 34.015 C 99.820 32.400,93.700 30.040,90.400 28.771 C 87.100 27.501,79.720 24.613,74.000 22.352 C 59.175 16.491,60.258 16.416,56.120 23.604 C 50.840 32.775,50.762 32.665,66.800 38.810 C 72.080 40.833,78.920 43.506,82.000 44.750 C 99.018 51.624,102.803 52.728,115.410 54.487 C 128.926 56.373,130.604 56.246,137.800 52.787 L 140.800 51.345 140.907 55.073 C 142.286 102.903,82.507 128.520,42.840 97.096 C 38.146 93.377,38.107 93.314,40.040 92.485 C 43.100 91.172,43.175 90.797,43.188 76.611 L 43.200 63.221 40.302 62.011 C 38.709 61.345,37.089 60.800,36.702 60.800 C 36.316 60.800,35.998 67.550,35.996 75.800 L 35.992 90.800 34.026 88.400 C 2.733 50.202,45.943 -3.007,97.972 9.659 M218.400 34.278 L 218.400 59.200 245.200 59.200 L 272.000 59.200 272.000 56.400 L 272.000 53.600 260.000 53.600 L 248.000 53.600 248.000 32.000 L 248.000 10.400 241.724 10.400 C 238.273 10.400,231.613 10.165,226.924 9.878 L 218.400 9.357 218.400 34.278 M300.400 12.385 C 298.200 13.880,295.200 16.343,293.734 17.858 L 291.067 20.613 301.334 26.948 C 325.229 41.692,337.652 49.014,338.067 48.599 C 338.311 48.356,337.225 46.368,335.655 44.183 C 332.144 39.295,332.143 39.200,335.600 39.200 L 338.400 39.200 338.400 24.400 L 338.400 9.600 321.400 9.633 L 304.400 9.666 300.400 12.385 M168.395 18.600 C 148.524 38.936,148.741 66.301,168.935 86.600 L 175.103 92.800 191.952 92.800 C 201.218 92.800,208.796 92.530,208.791 92.200 C 208.786 91.870,202.685 87.820,195.232 83.200 C 187.780 78.580,181.517 74.170,181.316 73.400 C 180.794 71.403,180.453 71.228,194.158 80.000 C 207.862 88.771,208.221 88.927,207.853 85.946 C 207.642 84.233,205.282 82.476,193.600 75.334 C 181.525 67.952,179.565 66.476,179.348 64.599 C 179.109 62.532,179.799 62.861,193.219 71.212 C 209.405 81.284,208.000 80.669,208.000 77.677 C 208.000 75.521,206.967 74.732,193.604 66.677 C 181.613 59.450,179.206 57.691,179.204 56.153 C 179.202 55.137,179.470 54.467,179.800 54.665 C 180.130 54.863,184.540 57.513,189.600 60.554 C 194.660 63.595,200.870 67.261,203.400 68.701 L 208.000 71.317 208.000 68.958 C 208.000 66.752,207.068 66.042,193.600 58.000 C 181.481 50.763,179.200 49.104,179.200 47.528 C 179.200 45.810,180.313 46.325,192.600 53.725 C 208.675 63.407,208.000 63.108,208.000 60.535 C 208.000 58.751,206.226 57.431,193.633 49.850 C 180.452 41.915,179.263 41.012,179.233 38.920 L 179.200 36.640 193.600 37.222 L 208.000 37.804 208.000 24.902 L 208.000 12.000 191.422 12.000 L 174.844 12.000 168.395 18.600 M287.370 24.150 C 285.363 26.157,286.999 27.409,311.372 42.519 C 338.842 59.549,338.406 59.321,338.386 56.659 C 338.374 55.099,334.434 52.287,313.925 39.200 C 286.145 21.473,288.636 22.884,287.370 24.150 M284.483 30.872 C 284.214 31.572,284.177 32.438,284.399 32.798 C 285.010 33.787,336.547 65.600,337.538 65.600 C 341.719 65.600,336.401 61.544,312.103 46.200 C 283.438 28.098,285.177 29.063,284.483 30.872 M51.711 35.600 C 51.455 36.267,50.263 36.801,49.025 36.803 C 45.890 36.807,41.600 39.602,41.600 41.641 C 41.600 45.548,43.537 46.820,57.451 52.054 C 67.296 55.757,71.240 61.633,66.836 66.036 C 63.875 68.998,57.366 68.799,50.681 65.542 C 43.911 62.244,44.000 62.097,44.000 76.552 L 44.000 89.009 47.000 88.532 C 49.833 88.082,53.687 84.940,54.538 82.387 C 55.182 80.455,70.989 83.848,73.704 86.501 C 78.098 90.797,84.622 90.941,89.381 86.848 C 92.461 84.198,92.496 78.973,89.449 76.510 C 87.897 75.255,87.181 73.735,86.758 70.800 C 86.441 68.600,85.882 65.995,85.515 65.010 C 84.986 63.593,85.299 62.802,87.016 61.210 C 89.711 58.711,89.058 58.662,97.600 62.000 C 106.489 65.474,105.573 65.612,108.310 60.375 C 111.065 55.102,111.529 55.725,103.290 53.622 C 99.599 52.680,94.739 51.179,92.490 50.286 C 83.576 46.746,69.749 41.330,65.200 39.597 C 62.560 38.590,59.816 37.529,59.103 37.238 C 58.148 36.848,57.251 37.655,55.703 40.296 C 52.885 45.105,52.856 45.041,58.849 47.097 C 69.634 50.799,71.049 51.628,70.599 53.981 L 70.194 56.102 68.097 54.137 C 65.340 51.554,59.089 48.472,53.166 46.777 C 48.217 45.361,45.600 43.684,45.600 41.930 C 45.600 40.261,48.624 39.786,50.570 41.149 C 53.040 42.879,53.169 42.818,54.827 39.139 C 56.086 36.348,56.132 35.774,55.149 35.151 C 53.459 34.082,52.232 34.242,51.711 35.600 M283.671 37.396 C 281.713 39.354,284.427 41.385,309.485 56.717 C 338.203 74.289,336.813 73.562,336.769 71.000 C 336.743 69.522,333.411 67.164,318.169 57.830 C 307.956 51.577,296.122 44.315,291.871 41.693 C 287.620 39.071,283.930 37.137,283.671 37.396 M280.000 46.775 C 280.000 48.583,328.241 79.200,331.088 79.200 C 334.876 79.200,330.723 75.656,317.778 67.841 C 309.980 63.133,298.290 56.043,291.800 52.084 C 280.899 45.435,280.000 45.031,280.000 46.775 M280.939 55.000 C 281.089 55.330,282.379 57.840,283.806 60.577 C 287.095 66.888,287.067 67.200,283.200 67.200 L 280.000 67.200 280.000 80.000 L 280.000 92.800 298.032 92.800 C 317.692 92.800,318.505 92.639,325.400 87.390 C 329.431 84.320,329.393 84.286,304.776 68.908 C 282.208 54.810,280.365 53.735,280.939 55.000 M112.503 57.211 C 111.033 58.682,108.526 63.192,108.945 63.612 C 109.090 63.757,111.519 64.739,114.342 65.795 L 119.475 67.715 122.075 62.857 C 125.113 57.180,125.086 57.128,118.722 56.417 C 114.727 55.970,113.600 56.114,112.503 57.211 M75.011 68.400 C 76.050 76.836,76.970 76.517,60.255 73.525 C 53.866 72.381,52.780 70.534,58.789 71.032 C 66.746 71.692,72.000 68.307,72.000 62.521 C 72.000 57.234,74.155 61.442,75.011 68.400 M218.400 65.600 L 218.400 68.000 245.200 68.000 L 272.000 68.000 272.000 65.600 L 272.000 63.200 245.200 63.200 L 218.400 63.200 218.400 65.600 M218.400 72.800 L 218.400 75.200 245.200 75.200 L 272.000 75.200 272.000 72.800 L 272.000 70.400 245.200 70.400 L 218.400 70.400 218.400 72.800 M218.400 82.000 L 218.400 84.800 245.200 84.800 L 272.000 84.800 272.000 82.000 L 272.000 79.200 245.200 79.200 L 218.400 79.200 218.400 82.000 M218.400 90.400 L 218.400 92.800 245.200 92.800 L 272.000 92.800 272.000 90.400 L 272.000 88.000 245.200 88.000 L 218.400 88.000 218.400 90.400 M162.400 103.430 C 157.347 105.974,159.758 111.461,166.657 113.117 C 169.411 113.778,169.081 115.505,166.134 115.854 C 164.751 116.017,163.820 115.662,163.510 114.854 C 162.912 113.294,159.200 113.172,159.200 114.711 C 159.200 117.408,162.179 119.600,165.845 119.600 C 174.165 119.600,175.493 112.038,167.645 109.351 C 165.910 108.756,164.350 107.849,164.178 107.335 C 163.714 105.942,167.174 106.201,167.711 107.600 C 168.666 110.089,172.464 108.322,171.653 105.767 C 170.775 103.002,165.765 101.737,162.400 103.430 M212.381 103.486 C 204.850 106.864,207.433 119.200,215.671 119.200 C 220.958 119.200,224.903 114.502,220.729 113.177 C 219.540 112.800,218.719 113.130,217.884 114.324 C 215.466 117.775,212.000 115.590,212.000 110.613 C 212.000 106.735,216.524 104.619,218.243 107.691 C 218.976 109.001,222.400 108.625,222.400 107.235 C 222.400 103.963,216.358 101.702,212.381 103.486 M184.000 111.200 L 184.000 119.200 190.400 119.200 C 196.267 119.200,196.800 119.067,196.800 117.600 C 196.800 116.194,196.267 116.000,192.400 116.000 C 188.533 116.000,188.000 115.806,188.000 114.400 C 188.000 113.013,188.533 112.800,192.000 112.800 C 195.733 112.800,196.000 112.667,196.000 110.800 C 196.000 108.933,195.733 108.800,192.000 108.800 C 188.978 108.800,188.000 108.507,188.000 107.600 C 188.000 106.679,189.022 106.400,192.400 106.400 C 196.267 106.400,196.800 106.206,196.800 104.800 C 196.800 103.333,196.267 103.200,190.400 103.200 L 184.000 103.200 184.000 111.200 M234.400 109.876 C 234.400 117.962,235.571 119.600,241.355 119.600 C 246.681 119.600,248.000 117.597,248.000 109.511 C 248.000 103.341,247.956 103.200,246.034 103.200 C 244.134 103.200,244.059 103.412,243.834 109.400 L 243.600 115.600 241.200 115.600 L 238.800 115.600 238.566 109.400 C 238.341 103.412,238.266 103.200,236.366 103.200 C 234.435 103.200,234.400 103.319,234.400 109.876 M260.000 111.200 L 260.000 119.200 262.000 119.200 C 263.800 119.200,264.000 118.880,264.000 116.000 C 264.000 111.495,265.512 111.982,269.807 117.869 C 270.513 118.836,271.638 119.246,273.105 119.069 L 275.332 118.800 272.958 115.535 C 270.691 112.415,270.652 112.227,272.093 111.328 C 273.749 110.293,274.071 107.175,272.772 104.747 C 272.067 103.430,271.057 103.200,265.972 103.200 L 260.000 103.200 260.000 111.200 M285.600 111.200 L 285.600 119.200 287.600 119.200 L 289.600 119.200 289.600 111.200 L 289.600 103.200 287.600 103.200 L 285.600 103.200 285.600 111.200 M300.000 104.800 C 300.000 106.044,300.533 106.400,302.400 106.400 L 304.800 106.400 304.800 112.800 C 304.800 119.093,304.833 119.200,306.800 119.200 C 308.767 119.200,308.800 119.093,308.800 112.800 L 308.800 106.400 311.200 106.400 C 313.067 106.400,313.600 106.044,313.600 104.800 C 313.600 103.325,313.067 103.200,306.800 103.200 C 300.533 103.200,300.000 103.325,300.000 104.800 M322.911 104.200 C 323.243 104.750,324.524 106.800,325.758 108.757 C 327.316 111.228,328.000 113.364,328.000 115.757 C 328.000 118.896,328.176 119.200,330.000 119.200 C 331.803 119.200,332.000 118.882,332.000 115.968 C 332.000 113.601,332.748 111.626,334.800 108.579 C 338.141 103.618,338.201 103.200,335.573 103.200 C 334.092 103.200,333.086 103.979,331.839 106.094 L 330.131 108.988 328.646 106.094 C 327.434 103.730,326.717 103.200,324.734 103.200 C 323.002 103.200,322.479 103.487,322.911 104.200 M269.452 107.800 C 269.034 110.006,264.000 110.237,264.000 108.051 C 264.000 106.691,264.504 106.400,266.859 106.400 C 269.149 106.400,269.665 106.678,269.452 107.800 " stroke="none" fill="#000000" fill-rule="evenodd"/></g></svg>